<mxfile host="app.diagrams.net" modified="2023-08-11T20:45:57.883Z" agent="Mozilla/5.0 (Windows NT 10.0; Win64; x64) AppleWebKit/537.36 (KHTML, like Gecko) Chrome/115.0.0.0 Safari/537.36" etag="KYAPOMJVj0jkWs60FE-R" version="21.6.8" type="github">
  <diagram name="Page-1" id="KdCPvyaEyFZrJNqloSRo">
    <mxGraphModel dx="1900" dy="1209" grid="0" gridSize="10" guides="1" tooltips="1" connect="1" arrows="1" fold="1" page="0" pageScale="1" pageWidth="850" pageHeight="1100" math="0" shadow="0">
      <root>
        <mxCell id="0" />
        <mxCell id="1" parent="0" />
        <mxCell id="EuIpPgGyZxs1bAB_q9Bw-1" value="OneDrive" style="rounded=1;whiteSpace=wrap;html=1;fontSize=12;glass=0;strokeWidth=1;shadow=1;labelBackgroundColor=none;fillColor=#BC6C25;strokeColor=#DDA15E;fontColor=#FEFAE0;" vertex="1" parent="1">
          <mxGeometry x="340" y="42" width="120" height="40" as="geometry" />
        </mxCell>
        <mxCell id="EuIpPgGyZxs1bAB_q9Bw-2" value="SharePoint" style="rounded=1;whiteSpace=wrap;html=1;fontSize=12;glass=0;strokeWidth=1;shadow=1;labelBackgroundColor=none;fillColor=#BC6C25;strokeColor=#DDA15E;fontColor=#FEFAE0;" vertex="1" parent="1">
          <mxGeometry x="-135" y="40" width="120" height="40" as="geometry" />
        </mxCell>
        <mxCell id="EuIpPgGyZxs1bAB_q9Bw-3" value="&lt;font color=&quot;#333333&quot;&gt;WISHVEN Project&lt;/font&gt;" style="text;html=1;align=center;verticalAlign=middle;resizable=0;points=[];autosize=1;strokeColor=none;fillColor=default;fontColor=#FEFAE0;shadow=1;" vertex="1" parent="1">
          <mxGeometry x="109" y="-49" width="115" height="26" as="geometry" />
        </mxCell>
        <mxCell id="EuIpPgGyZxs1bAB_q9Bw-4" value="" style="strokeWidth=2;html=1;shape=mxgraph.flowchart.annotation_2;align=left;labelPosition=right;pointerEvents=1;strokeColor=#DDA15E;fontColor=#FEFAE0;fillColor=#BC6C25;rotation=90;shadow=1;" vertex="1" parent="1">
          <mxGeometry x="135" y="-230" width="63" height="478" as="geometry" />
        </mxCell>
        <mxCell id="EuIpPgGyZxs1bAB_q9Bw-5" value="" style="strokeWidth=2;html=1;shape=mxgraph.flowchart.annotation_2;align=left;labelPosition=right;pointerEvents=1;strokeColor=#DDA15E;fontColor=#FEFAE0;fillColor=#BC6C25;rotation=90;shadow=1;" vertex="1" parent="1">
          <mxGeometry x="115.34" y="16.35" width="103.16" height="190.1" as="geometry" />
        </mxCell>
        <mxCell id="EuIpPgGyZxs1bAB_q9Bw-6" style="edgeStyle=orthogonalEdgeStyle;orthogonalLoop=1;jettySize=auto;html=1;curved=1;strokeColor=#C73500;entryX=0.518;entryY=0.033;entryDx=0;entryDy=0;entryPerimeter=0;fillColor=#fa6800;" edge="1" parent="1" source="EuIpPgGyZxs1bAB_q9Bw-7" target="EuIpPgGyZxs1bAB_q9Bw-13">
          <mxGeometry relative="1" as="geometry">
            <mxPoint x="75" y="315.00006103515625" as="targetPoint" />
          </mxGeometry>
        </mxCell>
        <mxCell id="EuIpPgGyZxs1bAB_q9Bw-7" value="Database&lt;br&gt;(Data stored in Excel)" style="rounded=1;whiteSpace=wrap;html=1;strokeColor=#DDA15E;fontColor=#FEFAE0;fillColor=#BC6C25;shadow=1;" vertex="1" parent="1">
          <mxGeometry x="15" y="163" width="120" height="60" as="geometry" />
        </mxCell>
        <mxCell id="EuIpPgGyZxs1bAB_q9Bw-8" value="" style="endArrow=none;dashed=1;html=1;rounded=0;strokeColor=#DDA15E;fontColor=#FEFAE0;fillColor=#BC6C25;shadow=1;" edge="1" parent="1">
          <mxGeometry width="50" height="50" relative="1" as="geometry">
            <mxPoint x="-15" y="61" as="sourcePoint" />
            <mxPoint x="339" y="61" as="targetPoint" />
          </mxGeometry>
        </mxCell>
        <mxCell id="EuIpPgGyZxs1bAB_q9Bw-9" style="edgeStyle=orthogonalEdgeStyle;rounded=0;orthogonalLoop=1;jettySize=auto;html=1;entryX=0.509;entryY=-0.007;entryDx=0;entryDy=0;entryPerimeter=0;fillColor=#f0a30a;strokeColor=#BD7000;" edge="1" parent="1" source="EuIpPgGyZxs1bAB_q9Bw-10" target="EuIpPgGyZxs1bAB_q9Bw-14">
          <mxGeometry relative="1" as="geometry" />
        </mxCell>
        <mxCell id="EuIpPgGyZxs1bAB_q9Bw-10" value="PowerAutomate" style="rounded=1;whiteSpace=wrap;html=1;strokeColor=#DDA15E;fontColor=#FEFAE0;fillColor=#BC6C25;shadow=1;" vertex="1" parent="1">
          <mxGeometry x="196" y="163" width="120" height="60" as="geometry" />
        </mxCell>
        <mxCell id="EuIpPgGyZxs1bAB_q9Bw-11" value="Linked To" style="text;html=1;align=center;verticalAlign=middle;resizable=0;points=[];autosize=1;fillColor=#f8cecc;strokeColor=#b85450;gradientColor=#ea6b66;shadow=1;" vertex="1" parent="1">
          <mxGeometry x="132" y="49" width="69" height="26" as="geometry" />
        </mxCell>
        <mxCell id="EuIpPgGyZxs1bAB_q9Bw-12" style="edgeStyle=orthogonalEdgeStyle;rounded=0;orthogonalLoop=1;jettySize=auto;html=1;exitX=0.501;exitY=1.017;exitDx=0;exitDy=0;exitPerimeter=0;strokeColor=#FF8000;" edge="1" parent="1">
          <mxGeometry relative="1" as="geometry">
            <mxPoint x="299" y="623" as="targetPoint" />
            <mxPoint x="64.005" y="517" as="sourcePoint" />
            <Array as="points">
              <mxPoint x="64" y="623" />
            </Array>
          </mxGeometry>
        </mxCell>
        <mxCell id="EuIpPgGyZxs1bAB_q9Bw-13" value="&lt;font color=&quot;#ffffff&quot;&gt;Feeding Birthday information such as DOB, Email ID, Name and so on.&lt;/font&gt;" style="rounded=1;whiteSpace=wrap;html=1;fillColor=#fa6800;fontColor=#000000;strokeColor=#C73500;" vertex="1" parent="1">
          <mxGeometry x="-57" y="451" width="255" height="60" as="geometry" />
        </mxCell>
        <mxCell id="EuIpPgGyZxs1bAB_q9Bw-14" value="&lt;font color=&quot;#ffffff&quot;&gt;Creatomg&lt;br&gt;Flows&lt;/font&gt;" style="rhombus;whiteSpace=wrap;html=1;fillColor=#fa6800;fontColor=#000000;strokeColor=#C73500;" vertex="1" parent="1">
          <mxGeometry x="368" y="215" width="80" height="80" as="geometry" />
        </mxCell>
        <mxCell id="EuIpPgGyZxs1bAB_q9Bw-15" value="" style="shape=image;html=1;verticalLabelPosition=bottom;verticalAlign=top;imageAspect=0;image=img/clipart/Gear_128x128.png" vertex="1" parent="1">
          <mxGeometry x="331" y="165" width="50" height="60" as="geometry" />
        </mxCell>
        <mxCell id="EuIpPgGyZxs1bAB_q9Bw-16" value="" style="strokeWidth=2;html=1;shape=mxgraph.flowchart.annotation_2;align=left;labelPosition=right;pointerEvents=1;rotation=90;fillColor=#ffcd28;strokeColor=#d79b00;gradientColor=#ffa500;" vertex="1" parent="1">
          <mxGeometry x="384.25" y="187.25" width="50" height="267.5" as="geometry" />
        </mxCell>
        <mxCell id="EuIpPgGyZxs1bAB_q9Bw-17" value="&lt;font style=&quot;font-size: 11px;&quot; color=&quot;#ffffff&quot;&gt;Automated&lt;br&gt;Cloud Flow&lt;/font&gt;" style="strokeWidth=2;html=1;shape=mxgraph.flowchart.terminator;whiteSpace=wrap;fillColor=#fa6800;fontColor=#000000;strokeColor=#C73500;" vertex="1" parent="1">
          <mxGeometry x="240" y="351" width="84" height="43" as="geometry" />
        </mxCell>
        <mxCell id="EuIpPgGyZxs1bAB_q9Bw-18" value="&lt;font style=&quot;font-size: 11px;&quot; color=&quot;#ffffff&quot;&gt;Instant&lt;br&gt;Cloud Flow&lt;/font&gt;" style="strokeWidth=2;html=1;shape=mxgraph.flowchart.terminator;whiteSpace=wrap;fillColor=#fa6800;fontColor=#000000;strokeColor=#C73500;" vertex="1" parent="1">
          <mxGeometry x="504" y="349" width="86" height="40" as="geometry" />
        </mxCell>
        <mxCell id="EuIpPgGyZxs1bAB_q9Bw-19" value="&lt;font style=&quot;font-size: 11px;&quot; color=&quot;#ffffff&quot;&gt;Automated&lt;br&gt;Cloud Flow&lt;/font&gt;" style="strokeWidth=2;html=1;shape=mxgraph.flowchart.terminator;whiteSpace=wrap;fillColor=#fa6800;fontColor=#000000;strokeColor=#C73500;" vertex="1" parent="1">
          <mxGeometry x="367.63" y="351" width="84.75" height="41" as="geometry" />
        </mxCell>
        <mxCell id="EuIpPgGyZxs1bAB_q9Bw-20" value="" style="line;strokeWidth=2;direction=south;html=1;fillColor=#e3c800;fontColor=#000000;strokeColor=#B09500;" vertex="1" parent="1">
          <mxGeometry x="404.25" y="323" width="10" height="23" as="geometry" />
        </mxCell>
        <mxCell id="EuIpPgGyZxs1bAB_q9Bw-21" style="edgeStyle=orthogonalEdgeStyle;rounded=0;orthogonalLoop=1;jettySize=auto;html=1;fillColor=#f0a30a;strokeColor=#BD7000;" edge="1" parent="1" source="EuIpPgGyZxs1bAB_q9Bw-22">
          <mxGeometry relative="1" as="geometry">
            <mxPoint x="492.00006103515625" y="481" as="targetPoint" />
          </mxGeometry>
        </mxCell>
        <mxCell id="EuIpPgGyZxs1bAB_q9Bw-22" value="&lt;font color=&quot;#ffffff&quot;&gt;Flow Name&lt;/font&gt;" style="ellipse;shape=doubleEllipse;whiteSpace=wrap;html=1;fillColor=#fa6800;fontColor=#000000;strokeColor=none;shadow=1;gradientColor=none;" vertex="1" parent="1">
          <mxGeometry x="360" y="451" width="100" height="60" as="geometry" />
        </mxCell>
        <mxCell id="EuIpPgGyZxs1bAB_q9Bw-23" value="" style="line;strokeWidth=2;direction=south;html=1;fillColor=#e3c800;fontColor=#000000;strokeColor=#B09500;" vertex="1" parent="1">
          <mxGeometry x="405" y="394" width="10" height="53" as="geometry" />
        </mxCell>
        <mxCell id="EuIpPgGyZxs1bAB_q9Bw-24" style="edgeStyle=orthogonalEdgeStyle;rounded=0;orthogonalLoop=1;jettySize=auto;html=1;fillColor=#f0a30a;strokeColor=#BD7000;" edge="1" parent="1" source="EuIpPgGyZxs1bAB_q9Bw-25">
          <mxGeometry relative="1" as="geometry">
            <mxPoint x="626.2307833158052" y="484.75" as="targetPoint" />
          </mxGeometry>
        </mxCell>
        <mxCell id="EuIpPgGyZxs1bAB_q9Bw-25" value="&lt;font color=&quot;#ffffff&quot;&gt;Run This Flow&lt;/font&gt;" style="ellipse;shape=doubleEllipse;whiteSpace=wrap;html=1;fillColor=#fa6800;fontColor=#000000;strokeColor=none;shadow=1;" vertex="1" parent="1">
          <mxGeometry x="494" y="454.75" width="100" height="60" as="geometry" />
        </mxCell>
        <mxCell id="EuIpPgGyZxs1bAB_q9Bw-26" style="edgeStyle=orthogonalEdgeStyle;rounded=0;orthogonalLoop=1;jettySize=auto;html=1;entryX=0.448;entryY=0.016;entryDx=0;entryDy=0;entryPerimeter=0;fillColor=#ffcd28;gradientColor=#ffa500;strokeColor=#d79b00;" edge="1" parent="1" source="EuIpPgGyZxs1bAB_q9Bw-27" target="EuIpPgGyZxs1bAB_q9Bw-33">
          <mxGeometry relative="1" as="geometry" />
        </mxCell>
        <mxCell id="EuIpPgGyZxs1bAB_q9Bw-27" value="&lt;font color=&quot;#ffffff&quot;&gt;This flow will run&lt;/font&gt;" style="ellipse;shape=doubleEllipse;whiteSpace=wrap;html=1;fillColor=#fa6800;fontColor=#000000;strokeColor=none;shadow=1;" vertex="1" parent="1">
          <mxGeometry x="627" y="454.75" width="100" height="60" as="geometry" />
        </mxCell>
        <mxCell id="EuIpPgGyZxs1bAB_q9Bw-28" value="" style="html=1;whiteSpace=wrap;shape=isoCube2;backgroundOutline=1;isoAngle=15;fillColor=#1ba1e2;fontColor=#ffffff;strokeColor=#006EAF;" vertex="1" parent="1">
          <mxGeometry x="104" y="-227" width="90" height="100" as="geometry" />
        </mxCell>
        <mxCell id="EuIpPgGyZxs1bAB_q9Bw-29" value="" style="html=1;whiteSpace=wrap;shape=isoCube2;backgroundOutline=1;isoAngle=15;fillColor=#e3c800;fontColor=#000000;strokeColor=#B09500;" vertex="1" parent="1">
          <mxGeometry x="150" y="-204" width="90" height="100" as="geometry" />
        </mxCell>
        <mxCell id="EuIpPgGyZxs1bAB_q9Bw-30" value="" style="html=1;whiteSpace=wrap;shape=isoCube2;backgroundOutline=1;isoAngle=15;fillColor=#fa6800;fontColor=#000000;strokeColor=#C73500;" vertex="1" parent="1">
          <mxGeometry x="104" y="-279" width="90" height="100" as="geometry" />
        </mxCell>
        <mxCell id="EuIpPgGyZxs1bAB_q9Bw-31" value="" style="html=1;whiteSpace=wrap;shape=isoCube2;backgroundOutline=1;isoAngle=15;fillColor=#60a917;fontColor=#ffffff;strokeColor=#2D7600;" vertex="1" parent="1">
          <mxGeometry x="150" y="-258" width="90" height="100" as="geometry" />
        </mxCell>
        <mxCell id="EuIpPgGyZxs1bAB_q9Bw-32" style="edgeStyle=orthogonalEdgeStyle;rounded=0;orthogonalLoop=1;jettySize=auto;html=1;entryX=0.998;entryY=0.503;entryDx=0;entryDy=0;entryPerimeter=0;strokeColor=#FF8000;" edge="1" parent="1" source="EuIpPgGyZxs1bAB_q9Bw-33" target="EuIpPgGyZxs1bAB_q9Bw-40">
          <mxGeometry relative="1" as="geometry" />
        </mxCell>
        <mxCell id="EuIpPgGyZxs1bAB_q9Bw-33" value="&lt;font color=&quot;#330000&quot;&gt;Month / Week / Day / Hour / Minutes / Seconds&lt;/font&gt;" style="whiteSpace=wrap;html=1;shape=mxgraph.basic.rectCallout;dx=30;dy=15;boundedLbl=1;fillColor=#fad7ac;strokeColor=#b46504;" vertex="1" parent="1">
          <mxGeometry x="619" y="578" width="130" height="90" as="geometry" />
        </mxCell>
        <mxCell id="EuIpPgGyZxs1bAB_q9Bw-34" style="edgeStyle=orthogonalEdgeStyle;rounded=0;orthogonalLoop=1;jettySize=auto;html=1;fillColor=#fa6800;strokeColor=#C73500;" edge="1" parent="1" source="EuIpPgGyZxs1bAB_q9Bw-35">
          <mxGeometry relative="1" as="geometry">
            <mxPoint x="385" y="950.3999938964844" as="targetPoint" />
          </mxGeometry>
        </mxCell>
        <mxCell id="EuIpPgGyZxs1bAB_q9Bw-35" value="Tagging The Excell Sheet" style="swimlane;startSize=20;horizontal=1;containerType=tree;fillColor=#999900;strokeColor=#FF8000;" vertex="1" parent="1">
          <mxGeometry x="191" y="687" width="388" height="194" as="geometry">
            <mxRectangle x="191" y="687" width="179" height="26" as="alternateBounds" />
          </mxGeometry>
        </mxCell>
        <mxCell id="EuIpPgGyZxs1bAB_q9Bw-36" value="" style="edgeStyle=elbowEdgeStyle;elbow=vertical;sourcePerimeterSpacing=0;targetPerimeterSpacing=0;startArrow=none;endArrow=none;rounded=0;curved=0;strokeColor=#FF8000;" edge="1" parent="EuIpPgGyZxs1bAB_q9Bw-35" source="EuIpPgGyZxs1bAB_q9Bw-37" target="EuIpPgGyZxs1bAB_q9Bw-38">
          <mxGeometry relative="1" as="geometry">
            <Array as="points">
              <mxPoint x="193" y="116" />
              <mxPoint x="205" y="120" />
            </Array>
          </mxGeometry>
        </mxCell>
        <mxCell id="EuIpPgGyZxs1bAB_q9Bw-37" value="&lt;ol&gt;&lt;li&gt;Recurrence&lt;/li&gt;&lt;li&gt;Add Action&lt;/li&gt;&lt;li&gt;Choose an operation&lt;/li&gt;&lt;/ol&gt;" style="whiteSpace=wrap;html=1;treeFolding=1;treeMoving=1;newEdgeStyle={&quot;edgeStyle&quot;:&quot;elbowEdgeStyle&quot;,&quot;startArrow&quot;:&quot;none&quot;,&quot;endArrow&quot;:&quot;none&quot;};fillColor=#fa6800;fontColor=#000000;strokeColor=#C73500;align=left;" vertex="1" parent="EuIpPgGyZxs1bAB_q9Bw-35">
          <mxGeometry x="68" y="41" width="260" height="59" as="geometry" />
        </mxCell>
        <mxCell id="EuIpPgGyZxs1bAB_q9Bw-38" value="Adding the path of excel sheet" style="whiteSpace=wrap;html=1;treeFolding=1;treeMoving=1;newEdgeStyle={&quot;edgeStyle&quot;:&quot;elbowEdgeStyle&quot;,&quot;startArrow&quot;:&quot;none&quot;,&quot;endArrow&quot;:&quot;none&quot;};fillColor=#fa6800;fontColor=#000000;strokeColor=#C73500;" vertex="1" parent="EuIpPgGyZxs1bAB_q9Bw-35">
          <mxGeometry x="70" y="140" width="261" height="40" as="geometry" />
        </mxCell>
        <mxCell id="EuIpPgGyZxs1bAB_q9Bw-39" style="edgeStyle=orthogonalEdgeStyle;rounded=0;orthogonalLoop=1;jettySize=auto;html=1;entryX=0.486;entryY=0.001;entryDx=0;entryDy=0;entryPerimeter=0;fillColor=#fa6800;strokeColor=#C73500;" edge="1" parent="1" source="EuIpPgGyZxs1bAB_q9Bw-40" target="EuIpPgGyZxs1bAB_q9Bw-35">
          <mxGeometry relative="1" as="geometry" />
        </mxCell>
        <mxCell id="EuIpPgGyZxs1bAB_q9Bw-40" value="&lt;font color=&quot;#ffffff&quot;&gt;Merging the data from Excel into Powerautomate&lt;/font&gt;" style="rounded=1;whiteSpace=wrap;html=1;fillColor=#fa6800;fontColor=#000000;strokeColor=#C73500;shadow=1;" vertex="1" parent="1">
          <mxGeometry x="299" y="593" width="161" height="60" as="geometry" />
        </mxCell>
        <mxCell id="EuIpPgGyZxs1bAB_q9Bw-41" value="Applying Condition" style="swimlane;startSize=20;horizontal=1;containerType=tree;fillColor=#999900;strokeColor=#FF8000;" vertex="1" parent="1">
          <mxGeometry x="191" y="952" width="388" height="194" as="geometry">
            <mxRectangle x="191" y="687" width="179" height="26" as="alternateBounds" />
          </mxGeometry>
        </mxCell>
        <mxCell id="EuIpPgGyZxs1bAB_q9Bw-42" value="" style="edgeStyle=elbowEdgeStyle;elbow=vertical;sourcePerimeterSpacing=0;targetPerimeterSpacing=0;startArrow=none;endArrow=none;rounded=0;curved=0;strokeColor=#FF8000;" edge="1" parent="EuIpPgGyZxs1bAB_q9Bw-41" source="EuIpPgGyZxs1bAB_q9Bw-43" target="EuIpPgGyZxs1bAB_q9Bw-44">
          <mxGeometry relative="1" as="geometry">
            <Array as="points">
              <mxPoint x="191" y="120" />
            </Array>
          </mxGeometry>
        </mxCell>
        <mxCell id="EuIpPgGyZxs1bAB_q9Bw-43" value="&lt;ol&gt;&lt;li&gt;Add another action&lt;/li&gt;&lt;li&gt;Apply to each&lt;/li&gt;&lt;li&gt;Condition&lt;/li&gt;&lt;/ol&gt;" style="whiteSpace=wrap;html=1;treeFolding=1;treeMoving=1;newEdgeStyle={&quot;edgeStyle&quot;:&quot;elbowEdgeStyle&quot;,&quot;startArrow&quot;:&quot;none&quot;,&quot;endArrow&quot;:&quot;none&quot;};fillColor=#fa6800;fontColor=#000000;strokeColor=#C73500;align=left;" vertex="1" parent="EuIpPgGyZxs1bAB_q9Bw-41">
          <mxGeometry x="61" y="41" width="260" height="59" as="geometry" />
        </mxCell>
        <mxCell id="EuIpPgGyZxs1bAB_q9Bw-44" value="&lt;div style=&quot;&quot;&gt;&lt;ol&gt;&lt;li&gt;&lt;span style=&quot;background-color: initial;&quot;&gt;Prepare a custom Email draft.&lt;/span&gt;&lt;/li&gt;&lt;li&gt;&lt;span style=&quot;background-color: initial;&quot;&gt;Add images&lt;/span&gt;&lt;/li&gt;&lt;/ol&gt;&lt;/div&gt;" style="whiteSpace=wrap;html=1;treeFolding=1;treeMoving=1;newEdgeStyle={&quot;edgeStyle&quot;:&quot;elbowEdgeStyle&quot;,&quot;startArrow&quot;:&quot;none&quot;,&quot;endArrow&quot;:&quot;none&quot;};fillColor=#fa6800;fontColor=#000000;strokeColor=#C73500;align=left;" vertex="1" parent="EuIpPgGyZxs1bAB_q9Bw-41">
          <mxGeometry x="63" y="140" width="261" height="40" as="geometry" />
        </mxCell>
        <mxCell id="EuIpPgGyZxs1bAB_q9Bw-45" value="&lt;h1&gt;&lt;font color=&quot;#330000&quot;&gt;Email Triggered&lt;/font&gt;&lt;/h1&gt;&lt;p&gt;&lt;font color=&quot;#330000&quot;&gt;Welcome to Wishven platform. An automation platform to regulate all verticals of wishes.&lt;/font&gt;&lt;/p&gt;" style="text;html=1;strokeColor=none;fillColor=none;spacing=5;spacingTop=-20;whiteSpace=wrap;overflow=hidden;rounded=0;" vertex="1" parent="1">
          <mxGeometry x="284.5" y="1187" width="190" height="120" as="geometry" />
        </mxCell>
        <mxCell id="EuIpPgGyZxs1bAB_q9Bw-46" value="" style="html=1;whiteSpace=wrap;shape=isoCube2;backgroundOutline=1;isoAngle=15;fillColor=#1ba1e2;fontColor=#ffffff;strokeColor=#006EAF;" vertex="1" parent="1">
          <mxGeometry x="306" y="1363" width="90" height="100" as="geometry" />
        </mxCell>
        <mxCell id="EuIpPgGyZxs1bAB_q9Bw-47" value="" style="html=1;whiteSpace=wrap;shape=isoCube2;backgroundOutline=1;isoAngle=15;fillColor=#e3c800;fontColor=#000000;strokeColor=#B09500;" vertex="1" parent="1">
          <mxGeometry x="352" y="1386" width="90" height="100" as="geometry" />
        </mxCell>
        <mxCell id="EuIpPgGyZxs1bAB_q9Bw-48" value="" style="html=1;whiteSpace=wrap;shape=isoCube2;backgroundOutline=1;isoAngle=15;fillColor=#fa6800;fontColor=#000000;strokeColor=#C73500;" vertex="1" parent="1">
          <mxGeometry x="306" y="1311" width="90" height="100" as="geometry" />
        </mxCell>
        <mxCell id="EuIpPgGyZxs1bAB_q9Bw-49" value="" style="html=1;whiteSpace=wrap;shape=isoCube2;backgroundOutline=1;isoAngle=15;fillColor=#60a917;fontColor=#ffffff;strokeColor=#2D7600;" vertex="1" parent="1">
          <mxGeometry x="352" y="1332" width="90" height="100" as="geometry" />
        </mxCell>
      </root>
    </mxGraphModel>
  </diagram>
</mxfile>
